PathFileType	4	(X/Y/Z)	OpenSim_Sub02_EMGBaseline_Magnet.trc
DataRate	CameraRate	NumFrames	NumMarkers	Units	OrigDataRate	OrigDataStartFrame	OrigNumFrames
100	100	26	8	m	100	4205	6727
Frame#	Time	torso_imu_offset_imu	pelvis_imu_offset_imu	tibia_r_imu_offset_imu	femur_r_imu_offset_imu	tibia_l_imu_offset_imu	femur_l_imu_offset_imu	toes_r_imu_offset_imu	toes_l_imu_offset_imu
				X1	Y1	Z1	X2	Y2	Z2	X3	Y3	Z3	X4	Y4	Z4	X5	Y5	Z5	X6	Y6	Z6	X7	Y7	Z7	X8		Y8	Z8	

4205	42.04000000	-0.91206303	-0.23187578	-0.11511084	-0.62912344	0.19066398	-0.64955308	-0.58579426	-0.53193877	-0.10111936	-0.80585579	-0.14854234	0.20412815	-0.21256312	0.79259062	-0.13983470	-0.60047206	0.54676927	0.21211029	-0.62554639	-0.29979833	-0.41421355	-0.79301019	-0.21855083	0.08776672
4206	42.05000000	-0.91269589	-0.23087628	-0.11577097	-0.62747507	0.18431411	-0.65122701	-0.58597651	-0.53575363	-0.09845460	-0.79815988	-0.16224283	0.21137890	-0.18445037	0.80095219	-0.14619427	-0.61749023	0.53306375	0.20649284	-0.62941827	-0.29979680	-0.41293837	-0.78548870	-0.20587905	0.14818701
4207	42.06000000	-0.91173177	-0.23209973	-0.11238827	-0.62214789	0.17901184	-0.64629539	-0.58250831	-0.53863896	-0.09121451	-0.79319182	-0.18454146	0.21201275	-0.15803452	0.80209450	-0.15701009	-0.62643590	0.51470308	0.20148161	-0.62792851	-0.30179673	-0.40861135	-0.77865790	-0.18730234	0.20632486
4208	42.07000000	-0.91580989	-0.22689317	-0.10581869	-0.62648910	0.17535140	-0.65159145	-0.57736862	-0.54189715	-0.09876173	-0.78487059	-0.21070522	0.21574762	-0.13818431	0.80414870	-0.15496536	-0.63827103	0.49748179	0.20205822	-0.62369929	-0.30530292	-0.40894697	-0.76229284	-0.16368583	0.25603517
4209	42.08000000	-0.91297467	-0.22263070	-0.10526733	-0.62406369	0.17655945	-0.66127820	-0.57652345	-0.54499243	-0.10681794	-0.77508970	-0.23063117	0.21241316	-0.11613324	0.80894782	-0.16453635	-0.65800547	0.47925676	0.19823212	-0.62342869	-0.30706848	-0.40405876	-0.74690723	-0.14055732	0.30283022
4210	42.09000000	-0.91599581	-0.22047529	-0.10024672	-0.62359325	0.17474642	-0.65605339	-0.56987568	-0.54864126	-0.11209012	-0.76937400	-0.24881822	0.21496573	-0.09854772	0.80612750	-0.17687961	-0.66632172	0.46418191	0.19489228	-0.62159994	-0.30919427	-0.39910549	-0.73704622	-0.11157875	0.34120821
4211	42.10000000	-0.91913508	-0.21968901	-0.09579478	-0.62100420	0.16781885	-0.65649236	-0.56636768	-0.55612827	-0.11614744	-0.76667766	-0.26082145	0.21874018	-0.09050589	0.80742230	-0.17726221	-0.67817189	0.44248649	0.18617075	-0.62286917	-0.31137842	-0.39899580	-0.72305864	-0.07981716	0.36917032
4212	42.11000000	-0.91573188	-0.21052292	-0.09329341	-0.61846597	0.16008105	-0.66643344	-0.56727420	-0.55857217	-0.12061663	-0.76187722	-0.26197362	0.22351919	-0.07818462	0.80494106	-0.18670417	-0.69130470	0.42089913	0.18740833	-0.61858336	-0.31269428	-0.39675907	-0.70943409	-0.05209423	0.39423789
4213	42.12000000	-0.91698941	-0.20582718	-0.08883134	-0.62427931	0.15477869	-0.66306565	-0.55775513	-0.56041218	-0.12471381	-0.75957420	-0.25909358	0.22821569	-0.06898302	0.80163998	-0.19433013	-0.70086656	0.40550010	0.19892956	-0.61739662	-0.31086171	-0.39336279	-0.71410987	-0.01484404	0.38951162
4214	42.13000000	-0.92271884	-0.20200747	-0.08385122	-0.62684966	0.15195732	-0.66055196	-0.55232116	-0.56998811	-0.12176789	-0.76140859	-0.25804904	0.23178292	-0.06424829	0.80499791	-0.20101508	-0.71229157	0.38873860	0.19659194	-0.62014077	-0.31107851	-0.39136100	-0.72212354	0.02489414	0.37098900
4215	42.14000000	-0.92332373	-0.19585881	-0.08317866	-0.62998193	0.14162840	-0.66732039	-0.55162459	-0.57168277	-0.11443950	-0.76196069	-0.25213837	0.24077111	-0.05848469	0.79926113	-0.20812031	-0.71916318	0.37233999	0.20583606	-0.62201028	-0.31204389	-0.39007020	-0.72640823	0.05821272	0.35022563
4216	42.15000000	-0.92301676	-0.19354216	-0.07769663	-0.63227651	0.13705857	-0.66586236	-0.54507309	-0.57565106	-0.10675123	-0.75901576	-0.25375374	0.24772901	-0.05163532	0.79361246	-0.22034754	-0.72373847	0.35679795	0.21813246	-0.62421048	-0.31452607	-0.38399169	-0.73705117	0.08380786	0.31544923
4217	42.16000000	-0.92519849	-0.18939742	-0.06837656	-0.63140929	0.13365393	-0.66434691	-0.54078717	-0.58353548	-0.10491808	-0.75858401	-0.25951931	0.25168097	-0.04436029	0.79023668	-0.24499327	-0.72941955	0.34378034	0.21155060	-0.62480054	-0.31583782	-0.37914017	-0.74869585	0.10020758	0.28900958
4218	42.17000000	-0.93063440	-0.19007314	-0.06737864	-0.63288910	0.12587132	-0.66502925	-0.53811535	-0.59118301	-0.10446609	-0.75520046	-0.26551165	0.25860747	-0.04851177	0.78289896	-0.26519627	-0.73898520	0.32466031	0.21764814	-0.61966023	-0.32129116	-0.37978325	-0.75479979	0.10917195	0.26639820
4219	42.18000000	-0.93078490	-0.19166726	-0.05969336	-0.63955507	0.11670642	-0.66177148	-0.53184819	-0.59586200	-0.09895069	-0.74939329	-0.27221460	0.27010054	-0.05743138	0.77640936	-0.29273328	-0.74252840	0.31076479	0.22752070	-0.61530868	-0.32746354	-0.38056746	-0.76210448	0.11807323	0.23261688
4220	42.19000000	-0.92474701	-0.19041544	-0.05273490	-0.63313811	0.10432476	-0.66609633	-0.52840013	-0.59415739	-0.09476229	-0.74426775	-0.27673296	0.27130988	-0.07003032	0.76343998	-0.31942460	-0.74271433	0.29281716	0.22801369	-0.61917782	-0.32612994	-0.38215827	-0.76849931	0.11928013	0.21109330
4221	42.20000000	-0.92500794	-0.18726812	-0.04928192	-0.63294499	0.10185654	-0.66899057	-0.52962928	-0.59812782	-0.09762203	-0.73734157	-0.29059131	0.27087970	-0.09039583	0.75109724	-0.34076171	-0.74962502	0.27431643	0.23182280	-0.61864129	-0.32748885	-0.37461369	-0.77592967	0.11284388	0.18790282
4222	42.21000000	-0.92331912	-0.18230947	-0.04356278	-0.63867043	0.09734645	-0.66559952	-0.52587239	-0.60244244	-0.10270186	-0.73052870	-0.29619105	0.27563434	-0.11486538	0.74123283	-0.35738471	-0.75664759	0.26235210	0.23733338	-0.61716241	-0.33022205	-0.37408758	-0.77878275	0.10530886	0.15997407
4223	42.22000000	-0.92447046	-0.18048039	-0.03763569	-0.63247278	0.08532340	-0.67019798	-0.52017229	-0.60586952	-0.10476067	-0.73376200	-0.29753098	0.27883734	-0.13437880	0.72629308	-0.36422034	-0.75805363	0.24158052	0.23919332	-0.61778632	-0.33627269	-0.37638260	-0.78621619	0.08902868	0.13386891
4224	42.23000000	-0.92817541	-0.18003061	-0.02726719	-0.63276981	0.07649408	-0.67216432	-0.51526644	-0.61329883	-0.10389573	-0.73206605	-0.30030617	0.28190082	-0.15856444	0.71870761	-0.36947894	-0.76292376	0.22048268	0.24214284	-0.62195767	-0.33906133	-0.36562290	-0.79665837	0.07147328	0.10380403
4225	42.24000000	-0.93143090	-0.17697582	-0.02364328	-0.63536685	0.06673601	-0.67208962	-0.51476946	-0.61714376	-0.10471755	-0.72899493	-0.30672673	0.28798900	-0.18903656	0.71687011	-0.36346129	-0.77066420	0.20199102	0.24288971	-0.62164799	-0.34016525	-0.36580732	-0.80345609	0.06053233	0.07567096
4226	42.25000000	-0.93423587	-0.17063125	-0.02299692	-0.63530106	0.06513061	-0.67646458	-0.51357436	-0.61926824	-0.10815418	-0.72252835	-0.31507305	0.28867767	-0.21486707	0.70968006	-0.36045465	-0.77618605	0.18572851	0.24528520	-0.61923426	-0.33909454	-0.36820058	-0.81004454	0.04866979	0.04209187
4227	42.26000000	-0.93309763	-0.16887967	-0.01605390	-0.63192993	0.06138381	-0.67793030	-0.51198598	-0.61965014	-0.10560835	-0.71960365	-0.31744158	0.28944593	-0.24232829	0.70890388	-0.34560059	-0.77510683	0.17085057	0.24212647	-0.62459110	-0.34331109	-0.36250162	-0.81421564	0.02759327	0.00211768
4228	42.27000000	-0.92950537	-0.16947246	-0.01294586	-0.62552160	0.05255477	-0.68139345	-0.50650470	-0.62332158	-0.10643580	-0.71836167	-0.32540677	0.29435249	-0.27489576	0.71135678	-0.31860459	-0.77850851	0.15452158	0.24037115	-0.62184459	-0.34549147	-0.35952720	-0.82130839	0.01493725	-0.03939386
4229	42.28000000	-0.93323150	-0.16711375	-0.01230093	-0.62934966	0.04922997	-0.68463077	-0.49837207	-0.62583343	-0.11183882	-0.71133318	-0.33454448	0.29480360	-0.30353555	0.70626063	-0.29443853	-0.78224614	0.13684510	0.24554656	-0.62219230	-0.34500628	-0.35835733	-0.81751405	0.00155535	-0.08212288
4230	42.29000000	-0.93375862	-0.16280431	-0.00413480	-0.63097602	0.04523499	-0.68048774	-0.50012988	-0.62429281	-0.11463718	-0.70907388	-0.33879670	0.29767322	-0.33795906	0.69761208	-0.26596892	-0.77994543	0.12713878	0.24707700	-0.62376157	-0.35169380	-0.35917609	-0.80936118	-0.00962329	-0.12506611
